<svg width="128" height="128" viewBox="0 0 128 128" fill="none" xmlns="http://www.w3.org/2000/svg">
<path d="M58.4101 6.74019C60.9828 2.77281 67.0179 2.7728 69.5906 6.74018L75.7574 16.2501C77.4488 18.8584 80.861 19.9189 83.8322 18.7596L94.6654 14.533C99.1848 12.7697 104.067 16.1626 103.711 20.8187L102.856 31.9794C102.621 35.0405 104.73 37.8168 107.846 38.5494L119.208 41.2204C123.948 42.3348 125.812 47.8247 122.663 51.391L115.112 59.9395C113.041 62.2841 113.041 65.7158 115.112 68.0604L122.663 76.6089C125.812 80.1752 123.948 85.6651 119.208 86.7795L107.846 89.4505C104.73 90.1831 102.621 92.9594 102.856 96.0204L103.711 107.181C104.067 111.837 99.1848 115.23 94.6654 113.467L83.8322 109.24C80.861 108.081 77.4488 109.141 75.7574 111.75L69.5906 121.26C67.0179 125.227 60.9828 125.227 58.4102 121.26L52.2433 111.75C50.5519 109.141 47.1398 108.081 44.1685 109.24L33.3354 113.467C28.8159 115.23 23.9335 111.837 24.2902 107.181L25.1452 96.0204C25.3797 92.9594 23.2709 90.1831 20.1547 89.4505L8.79309 86.7795C4.05322 85.6651 2.18827 80.1752 5.33813 76.6089L12.8884 68.0604C14.9593 65.7158 14.9593 62.2841 12.8884 59.9395L5.33813 51.391C2.18828 47.8247 4.05321 42.3348 8.79308 41.2204L20.1547 38.5494C23.2709 37.8168 25.3797 35.0405 25.1452 31.9794L24.2902 20.8187C23.9335 16.1626 28.8159 12.7697 33.3353 14.533L44.1685 18.7596C47.1398 19.9189 50.5519 18.8584 52.2433 16.2501L58.4101 6.74019Z" fill="#E1251A"/>
<path d="M55.2522 4.69156C59.3086 -1.56385 68.6914 -1.56386 72.7478 4.69156L78.9149 14.2017C79.598 15.2549 81.0927 15.7873 82.4641 15.2522L93.2973 11.0257C100.13 8.35996 108.053 13.4011 107.463 21.1065L106.608 32.2669C106.524 33.3604 107.28 34.5491 108.707 34.8846L120.069 37.5555C127.393 39.2776 130.642 48.0429 125.483 53.8837L117.933 62.4319C117.119 63.3528 117.119 64.647 117.933 65.5679L125.483 74.1162C130.642 79.957 127.393 88.7222 120.069 90.4443L108.707 93.1153C107.28 93.4508 106.524 94.6395 106.608 95.7329L107.463 106.893C108.053 114.599 100.13 119.64 93.2973 116.974L82.4641 112.748C81.0926 112.213 79.5979 112.745 78.9149 113.799L72.7478 123.308C68.6914 129.564 59.3086 129.564 55.2522 123.308L49.0851 113.799C48.402 112.745 46.9074 112.213 45.5359 112.748L34.7027 116.974C27.8704 119.64 19.9468 114.599 20.5372 106.893L21.3922 95.7329C21.4759 94.6395 20.7201 93.4508 19.293 93.1153L7.93141 90.4443C0.606585 88.7222 -2.64186 79.957 2.51688 74.1162L10.0674 65.5679C10.8808 64.647 10.8808 63.3528 10.0674 62.4319L2.51688 53.8837C-2.64185 48.0429 0.606568 39.2776 7.93141 37.5555L19.293 34.8846C20.7201 34.5491 21.4759 33.3604 21.3922 32.2669L20.5372 21.1065C19.9468 13.4011 27.8703 8.35996 34.7027 11.0257L45.5359 15.2522C46.9073 15.7873 48.402 15.2549 49.0851 14.2017L55.2522 4.69156ZM69.59 6.74028C67.0173 2.77291 60.9827 2.77291 58.41 6.74028L52.2429 16.2499C50.5515 18.8582 47.1394 19.9188 44.1681 18.7596L33.3349 14.533C28.8155 12.7697 23.9332 16.1628 24.2899 20.8189L25.1449 31.9792C25.3794 35.0403 23.2706 37.8169 20.1544 38.5496L8.79287 41.2205L8.5728 41.2757C3.99579 42.5056 2.23717 47.8804 5.33786 51.391L12.8879 59.9393C14.9587 62.2839 14.9587 65.716 12.8879 68.0606L5.33786 76.6088L5.19359 76.7775C2.24683 80.3457 4.12711 85.6824 8.79287 86.7793L20.1544 89.4503C23.2706 90.1829 25.3794 92.9595 25.1449 96.0206L24.2899 107.181L24.277 107.398C24.0856 111.942 28.8861 115.203 33.3349 113.467L44.1681 109.24C47.1394 108.081 50.5515 109.142 52.2429 111.75L58.41 121.26C60.9826 125.227 67.0173 125.227 69.59 121.26L75.7571 111.75C77.4485 109.142 80.8606 108.081 83.8319 109.24L94.6651 113.467C99.1845 115.23 104.067 111.837 103.71 107.181L102.855 96.0206C102.621 92.9595 104.729 90.1829 107.846 89.4503L119.207 86.7793C123.947 85.665 125.812 80.1751 122.662 76.6088L115.112 68.0606C113.106 65.7893 113.043 62.4977 114.924 60.1626L115.112 59.9393L122.662 51.391C125.763 47.8804 124.004 42.5055 119.427 41.2757L119.207 41.2205L107.846 38.5496C104.729 37.8169 102.621 35.0403 102.855 31.9792L103.71 20.8189C104.067 16.1628 99.1845 12.7697 94.6651 14.533L83.8319 18.7596L83.5521 18.8616C80.7427 19.819 77.6053 18.8442 75.9207 16.4903L75.7571 16.2499L69.59 6.74028Z" fill="white"/>
<ellipse cx="47.0669" cy="54.588" rx="14.1176" ry="21.6471" fill="white"/>
<ellipse cx="50.8314" cy="54.588" rx="6.58824" ry="9.41177" fill="#141414"/>
<path d="M47.0664 32.9409C54.8633 32.9411 61.1836 42.6332 61.1836 54.5884C61.1836 56.9206 60.9412 59.1662 60.4961 61.271C59.7915 61.0789 59.0245 60.7391 58.2129 60.2915C57.1396 59.6995 55.9723 58.9106 54.7461 58.0034C52.2954 56.1903 49.5825 53.883 46.8877 51.688C44.1865 49.4878 41.5009 47.3988 39.084 46.0005C37.876 45.3016 36.7436 44.78 35.7178 44.5024C35.3424 44.4009 34.9833 44.3333 34.6416 44.3003C37.029 37.5356 41.6979 32.9409 47.0664 32.9409Z" fill="#C02016"/>
<ellipse cx="14.1176" cy="21.6471" rx="14.1176" ry="21.6471" transform="matrix(-1 0 0 1 95.0664 32.9409)" fill="white"/>
<ellipse cx="6.58824" cy="9.41177" rx="6.58824" ry="9.41177" transform="matrix(-1 0 0 1 83.7725 45.1763)" fill="#141414"/>
<path d="M80.9492 32.9409C73.1524 32.9411 66.832 42.6332 66.832 54.5884C66.8321 56.9206 67.0744 59.1662 67.5195 61.271C68.2241 61.0789 68.9911 60.7391 69.8027 60.2915C70.876 59.6995 72.0433 58.9106 73.2695 58.0034C75.7202 56.1903 78.4331 53.883 81.1279 51.688C83.8292 49.4878 86.5148 47.3988 88.9316 46.0005C90.1397 45.3016 91.272 44.78 92.2979 44.5024C92.6732 44.4009 93.0323 44.3333 93.374 44.3003C90.9866 37.5356 86.3177 32.9409 80.9492 32.9409Z" fill="#C02016"/>
</svg>
