<svg width="256" height="256" viewBox="0 0 256 256" fill="none" xmlns="http://www.w3.org/2000/svg">
<path d="M248.471 114.614C248.47 83.1786 223.186 57.6486 191.845 57.2518L191.104 57.2472C190.26 57.2472 189.42 57.2654 188.585 57.3015L188.393 57.3051C186.487 57.2989 184.81 55.9715 184.361 54.1186L184.32 53.932C179.203 27.494 155.933 7.52941 128 7.52941C100.067 7.52942 76.7972 27.494 71.6801 53.932L71.6388 54.1186C71.1754 56.0334 69.399 57.3872 67.4145 57.3015C66.5796 57.2654 65.7399 57.2472 64.8961 57.2472C33.2135 57.2474 7.52964 82.9313 7.52941 114.614C7.52941 135.418 18.6034 153.636 35.1783 163.694C36.9336 164.759 37.653 166.977 36.8566 168.869L36.5901 169.512C33.8807 176.177 32.3888 183.466 32.3888 191.104L32.3934 191.845C32.787 222.939 57.9193 248.072 89.0138 248.466L89.7555 248.471C103.237 248.471 115.632 243.82 125.425 236.036C126.926 234.842 129.074 234.842 130.575 236.036C140.368 243.82 152.763 248.471 166.244 248.471C197.68 248.471 223.21 223.186 223.607 191.845L223.611 191.104C223.611 183.466 222.119 176.177 219.41 169.512L219.143 168.869C218.347 166.977 219.066 164.759 220.822 163.694C237.397 153.636 248.471 135.418 248.471 114.614ZM256 114.614C256 137.136 244.522 156.97 227.129 168.598C229.724 175.618 231.141 183.203 231.141 191.104C231.141 226.945 202.086 256 166.244 256C151.953 256 138.725 251.372 128 243.538C117.275 251.372 104.047 256 89.7555 256C53.9143 256 24.8595 226.945 24.8594 191.104C24.8594 183.203 26.2748 175.618 28.8704 168.598C11.4777 156.97 0 137.136 0 114.614C0.000224125 78.7751 29.0516 49.7214 64.8897 49.7178C71.7267 21.1988 97.3803 3.21067e-06 128 0C158.62 0 184.272 21.1989 191.109 49.7178C226.948 49.7209 256 78.7748 256 114.614Z" fill="#F5F5F7"/>
<path d="M128 7.5293C100.067 7.5293 76.7967 27.4934 71.6797 53.9314C71.29 55.9445 69.4632 57.3901 67.4147 57.3016C66.5797 57.2655 65.7401 57.2473 64.8962 57.2473C33.2134 57.2473 7.5293 82.9314 7.5293 114.614C7.5293 135.418 18.6034 153.636 35.1783 163.694C36.9336 164.759 37.6526 166.977 36.8563 168.869C33.9788 175.707 32.3883 183.219 32.3883 191.104C32.3883 222.786 58.0724 248.47 89.7553 248.47C103.237 248.47 115.632 243.82 125.425 236.036C126.927 234.842 129.073 234.842 130.575 236.036C140.367 243.82 152.763 248.47 166.245 248.47C197.927 248.47 223.611 222.786 223.611 191.104C223.611 183.219 222.021 175.707 219.144 168.869C218.347 166.977 219.066 164.759 220.821 163.694C237.396 153.636 248.47 135.418 248.47 114.614C248.47 82.9314 222.786 57.2473 191.104 57.2473C190.26 57.2473 189.42 57.2655 188.585 57.3016C186.537 57.3901 184.71 55.9445 184.32 53.9314C179.203 27.4934 155.933 7.5293 128 7.5293Z" fill="#669DF2"/>
<rect width="124.235" height="86.5882" transform="translate(65.8823 79.0588)" fill="#669DF2"/>
<ellipse cx="94.1176" cy="122.353" rx="28.2353" ry="43.2941" fill="white"/>
<ellipse cx="82.8234" cy="122.353" rx="13.1765" ry="18.8235" fill="#141414"/>
<ellipse cx="161.882" cy="122.353" rx="28.2353" ry="43.2941" fill="white"/>
<ellipse cx="150.588" cy="122.353" rx="13.1765" ry="18.8235" fill="#141414"/>
</svg>
