<svg width="375" height="812" viewBox="0 0 375 812" fill="none" xmlns="http://www.w3.org/2000/svg">
<g clip-path="url(#clip0_338_3750)">
<path d="M-269.232 -38.858L-251.754 -118.113L-251.83 -118.174L-232.724 -204.408L-116.177 -110.228L-98.6996 -189.484L-98.7753 -189.544L-79.6687 -275.779L36.8776 -181.6L54.3549 -260.854L54.2792 -260.915L73.3858 -347.149L189.932 -252.971L207.409 -332.225L207.334 -332.285L226.44 -418.52L342.987 -324.34L360.465 -403.596L360.389 -403.656L379.496 -489.891L530.77 -367.649L512.128 -282.691L395.597 -375.589L359.927 -213.837L359.672 -214.052L359.073 -211.32L242.541 -304.218L206.872 -142.466L206.617 -142.68L206.019 -139.95L89.4867 -232.847L53.8175 -71.0954L53.5625 -71.3094L52.9641 -68.579L-63.5682 -161.478L-99.237 0.275116L-99.4924 0.060176L-100.091 2.79188L-216.623 -90.1071L-252.292 71.646L-252.549 71.4315L-253.147 74.1619L-369.679 -18.7367L-405.348 143.016L-440.195 113.718L-404.811 -46.7438L-404.887 -46.8044L-385.781 -133.038L-269.232 -38.858Z" fill="#F0F6FF"/>
<path d="M599.02 -130.426L580.378 -45.4686L463.846 -138.366L428.177 23.3855L427.92 23.1701L427.321 25.9031L310.789 -66.9959L275.12 94.7572L274.867 94.5445L274.268 97.2728L157.737 4.37379L122.067 166.127L121.812 165.913L121.214 168.643L4.68224 75.7443L-30.9874 237.497L-31.2441 237.282L-31.8426 240.015L-148.374 147.116L-184.044 308.869L-184.299 308.655L-184.897 311.385L-301.429 218.486L-337.098 380.239L-371.945 350.941L-336.561 190.48L-336.637 190.42L-317.531 104.186L-200.983 198.365L-183.505 119.109L-183.581 119.049L-164.475 32.8147L-47.9274 126.995L-30.4492 47.738L-30.5248 47.6774L-11.4191 -38.5566L105.127 55.622L122.605 -23.6334L122.53 -23.6931L141.635 -109.927L258.18 -15.749L275.658 -95.0022L275.582 -95.0628L294.688 -181.297L411.236 -87.1168L428.714 -166.373L428.639 -166.434L447.745 -252.668L599.02 -130.426Z" fill="#F0F6FF"/>
<path d="M667.269 106.796L648.626 191.754L532.095 98.8555L496.425 260.609L496.17 260.394L495.571 263.125L379.04 170.227L343.371 331.979L343.115 331.764L342.516 334.496L225.985 241.597L190.316 403.35L190.061 403.135L189.462 405.866L72.9308 312.968L37.2616 474.72L37.0062 474.505L36.4073 477.237L-80.125 384.338L-115.794 546.091L-116.049 545.876L-116.648 548.608L-233.18 455.709L-268.849 617.462L-303.696 588.164L-268.312 427.703L-268.387 427.642L-249.282 341.408L-132.734 435.587L-115.256 356.332L-115.332 356.271L-96.2263 270.037L20.3212 364.216L37.799 284.961L37.7233 284.9L56.8291 198.666L173.375 292.845L190.853 213.591L190.778 213.53L209.884 127.296L326.43 221.475L343.908 142.22L343.832 142.159L362.938 55.9255L479.486 150.105L496.963 70.8492L496.888 70.7886L515.993 -15.4454L667.269 106.796Z" fill="#F0F6FF"/>
<path d="M431.221 293.176L547.734 387.327L565.211 308.072L565.136 308.011L584.242 221.777L735.517 344.018L716.875 428.977L600.343 336.078L564.674 497.831L564.419 497.616L563.82 500.348L447.287 407.449L411.619 569.202L411.365 568.988L410.767 571.719L294.234 478.82L258.565 640.573L258.31 640.358L257.712 643.088L141.179 550.19L105.511 711.942L105.254 711.727L104.655 714.459L-11.877 621.561L-47.5457 783.314L-47.8011 783.099L-48.4 785.83L-164.932 692.933L-200.601 854.684L-235.448 825.387L-200.064 664.926L-200.139 664.865L-181.033 578.631L-64.4861 672.81L-47.0084 593.555L-47.084 593.494L-27.9774 507.26L88.5693 601.439L106.048 522.183L105.972 522.123L125.078 435.889L241.626 530.068L259.103 450.814L259.027 450.753L278.133 364.519L394.679 458.697L412.156 379.443L412.08 379.382L431.186 293.148L431.187 293.148L431.221 293.176Z" fill="#F0F6FF"/>
<path d="M652.525 459.028L803.766 581.242L785.124 666.199L668.592 573.301L632.923 735.053L632.666 734.838L632.068 737.571L515.536 644.673L479.867 806.425L479.612 806.212L479.014 808.941L362.482 716.042L326.813 877.795L326.558 877.581L325.96 880.311L209.427 787.413L173.759 949.165L173.503 948.95L172.904 951.682L56.373 858.783L20.7033 1020.54L20.4466 1020.32L19.8481 1023.05L-96.6833 930.154L-132.353 1091.91L-167.199 1062.61L-131.815 902.148L-131.89 902.088L-112.785 815.854L3.76334 910.034L21.2415 830.777L21.1659 830.716L40.2716 744.482L156.818 838.662L174.296 759.406L174.22 759.346L193.327 673.111L309.873 767.29L327.351 688.036L327.275 687.975L346.382 601.741L462.926 695.919L480.404 616.666L480.328 616.605L499.435 530.371L615.982 624.551L633.46 545.295L633.385 545.234L652.491 459L652.491 458.999L652.525 459.028Z" fill="#F0F6FF"/>
<path d="M225.068 1075.88L242.545 996.628L242.47 996.567L261.576 910.333L378.123 1004.51L395.601 925.257L395.526 925.197L414.631 838.963L531.176 933.141L548.654 853.887L548.579 853.826L567.685 767.592L684.232 861.773L701.71 782.515L701.635 782.455L720.741 696.221L872.015 818.463L853.374 903.421L736.842 810.522L701.173 972.275L700.916 972.06L700.317 974.792L583.786 881.893L548.116 1043.65L547.863 1043.43L547.264 1046.16L430.733 953.264L395.063 1115.02L394.808 1114.8L394.209 1117.53L277.677 1024.64L242.008 1186.39L241.753 1186.17L241.154 1188.9L124.622 1096.01L88.9527 1257.76L88.6977 1257.54L88.0988 1260.28L-28.4335 1167.38L-64.1022 1329.13L-98.9493 1299.83L-63.5653 1139.37L-63.641 1139.31L-44.5348 1053.08L72.0115 1147.25L89.4897 1068L89.414 1067.94L108.52 981.703L225.068 1075.88Z" fill="#F0F6FF"/>
</g>
<defs>
<clipPath id="clip0_338_3750">
<rect width="375" height="812" fill="white"/>
</clipPath>
</defs>
</svg>
