<svg width="1094" height="278" viewBox="0 0 1094 278" fill="none" xmlns="http://www.w3.org/2000/svg">
<path d="M51.569 21.3281C50.569 21.7081 50.199 22.3581 49.299 23.8381C48.389 25.3181 47.759 26.2281 47.039 28.7581C46.319 31.2781 46.369 32.9881 45.679 36.4681C44.989 39.9581 44.639 41.9381 43.569 46.1581C42.499 50.3781 41.809 52.6781 40.329 57.5681C38.849 62.4481 37.969 65.1381 36.189 70.5781C34.399 76.0081 33.379 78.9381 31.399 84.7481C29.419 90.5581 28.329 93.7181 26.279 99.6281C24.229 105.538 23.129 108.578 21.139 114.308C19.149 120.038 18.149 122.968 16.339 128.268C14.519 133.568 13.649 136.258 12.059 140.788C10.469 145.318 9.65898 147.448 8.39898 150.928C7.13898 154.408 6.20897 155.858 5.74897 158.168C5.27897 160.478 5.43898 161.438 6.06898 162.478C6.70898 163.518 7.63898 164.048 8.89898 163.368C10.169 162.688 11.459 161.868 12.379 159.068C13.299 156.278 12.889 153.878 13.499 149.398C14.119 144.918 14.509 142.188 15.479 136.678C16.449 131.178 17.139 128.018 18.359 121.888C19.579 115.748 20.209 112.398 21.579 106.008C22.939 99.6181 23.719 96.3781 25.189 89.9381C26.669 83.4981 27.489 80.1481 28.939 73.7981C30.389 67.4581 31.049 64.248 32.459 58.208C33.879 52.168 34.649 49.0981 36.009 43.6081C37.369 38.1081 38.049 35.448 39.249 30.708C40.449 25.978 40.929 23.7281 42.009 19.9181C43.089 16.1081 43.989 14.3981 44.639 11.6781C45.279 8.95805 45.329 7.64806 45.229 6.30806C45.139 4.95806 44.579 4.59805 44.159 4.95805C43.729 5.31805 43.049 6.05805 43.119 8.11805C43.189 10.1781 43.759 11.6281 44.519 15.2581C45.269 18.8981 45.949 21.3481 46.919 26.2881C47.889 31.2381 48.399 34.1681 49.369 39.9981C50.329 45.8281 50.769 48.9981 51.739 55.4381C52.709 61.8781 53.179 65.3981 54.229 72.1981C55.279 79.0081 55.849 82.5881 56.969 89.4681C58.079 96.3581 58.699 99.9281 59.799 106.628C60.909 113.328 61.419 116.738 62.489 122.978C63.549 129.218 64.119 132.308 65.129 137.818C66.139 143.318 66.659 145.908 67.549 150.488C68.429 155.068 68.609 157.248 69.579 160.718C70.539 164.178 71.299 166.538 72.349 167.818C73.399 169.108 74.549 168.778 74.819 167.168C75.099 165.548 74.419 163.228 73.729 159.728C73.039 156.228 72.429 154.188 71.379 149.668C70.319 145.158 69.619 142.598 68.449 137.148C67.279 131.708 66.669 128.638 65.519 122.438C64.369 116.238 63.829 112.828 62.689 106.138C61.559 99.4581 60.939 95.8881 59.839 89.0081C58.739 82.1381 58.179 78.5581 57.199 71.7581C56.219 64.9581 55.779 61.4481 54.949 54.9881C54.129 48.5381 53.739 45.3581 53.069 39.4781C52.389 33.6081 52.019 30.6781 51.569 25.6281C51.109 20.5781 51.239 18.0881 50.789 14.2481C50.329 10.4081 50.399 8.65805 49.309 6.42805C48.209 4.19805 46.889 3.47805 45.299 3.11805C43.709 2.75805 42.649 3.20806 41.359 4.62806C40.059 6.04806 39.589 7.36807 38.829 10.2281C38.079 13.0881 38.249 14.9981 37.589 18.9181C36.929 22.8481 36.509 25.0781 35.529 29.8681C34.559 34.6481 33.939 37.2981 32.709 42.8281C31.479 48.3581 30.729 51.4481 29.379 57.5081C28.039 63.5681 27.399 66.7781 25.969 73.1281C24.539 79.4781 23.729 82.8181 22.229 89.2581C20.729 95.6981 19.939 98.9481 18.479 105.328C17.029 111.708 16.369 115.058 14.959 121.148C13.539 127.248 12.819 130.388 11.409 135.788C9.99897 141.198 9.21898 143.868 7.89898 148.168C6.58898 152.468 5.24898 154.418 4.83898 157.298C4.41898 160.168 5.07897 161.338 5.82897 162.518C6.57897 163.698 7.50897 163.718 8.57897 163.178C9.65897 162.648 10.309 161.988 11.199 159.828C12.089 157.658 12.099 155.928 13.029 152.368C13.949 148.798 14.489 146.588 15.819 141.988C17.139 137.388 17.959 134.688 19.649 129.358C21.339 124.038 22.309 121.108 24.259 115.378C26.199 109.648 27.289 106.608 29.369 100.708C31.439 94.8081 32.549 91.6581 34.609 85.8681C36.679 80.0881 37.739 77.1681 39.679 71.7681C41.609 66.3781 42.569 63.7081 44.299 58.8781C46.039 54.0581 46.849 51.7681 48.359 47.6381C49.869 43.5081 50.579 41.5981 51.839 38.2281C53.099 34.8681 53.989 33.4181 54.659 30.8381C55.329 28.2581 55.279 27.1081 55.199 25.3381C55.119 23.5581 54.989 22.7381 54.269 21.9381C53.539 21.1381 52.559 20.9581 51.569 21.3281Z" fill="black" stroke="black" stroke-width="4"/>
<path d="M3.72902 128.358C4.26902 129.038 4.48902 129.148 5.73902 129.428C6.98902 129.698 7.71902 130.028 9.97902 129.748C12.239 129.468 13.669 128.988 17.029 128.018C20.399 127.058 22.579 126.218 26.789 124.928C30.999 123.628 33.509 122.988 38.089 121.558C42.669 120.128 45.099 119.248 49.689 117.788C54.269 116.338 56.639 115.628 61.009 114.278C65.369 112.928 67.589 112.248 71.529 111.038C75.459 109.838 77.339 109.358 80.669 108.258C84.009 107.158 85.749 106.668 88.209 105.538C90.679 104.418 91.559 103.758 92.999 102.648C94.429 101.538 94.809 100.938 95.389 99.988C95.969 99.038 96.069 98.518 95.909 97.878C95.749 97.238 95.179 96.938 94.609 96.808C94.039 96.668 93.919 96.958 93.069 97.188C92.229 97.428 91.859 97.438 90.369 97.968C88.879 98.498 87.949 98.788 85.629 99.848C83.299 100.898 81.879 101.878 78.759 103.238C75.649 104.588 73.859 105.228 70.049 106.608C66.229 107.988 64.009 108.718 59.689 110.138C55.359 111.548 52.979 112.278 48.409 113.678C43.829 115.078 41.399 115.918 36.819 117.128C32.229 118.328 29.729 118.878 25.489 119.698C21.239 120.508 18.989 120.738 15.599 121.188C12.209 121.638 10.749 121.388 8.52901 121.948C6.29901 122.508 5.56901 123.138 4.46901 123.968C3.36901 124.788 3.18902 125.188 3.03902 126.068C2.88902 126.948 3.18902 127.688 3.72902 128.358Z" fill="black" stroke="black" stroke-width="4"/>
<path d="M110.399 26.698C109.719 27.318 109.769 27.718 109.529 29.118C109.289 30.508 108.869 31.278 109.209 33.678C109.559 36.088 110.509 37.598 111.249 41.128C111.989 44.658 112.409 46.758 112.909 51.328C113.409 55.888 113.579 58.548 113.769 63.958C113.959 69.358 113.899 72.368 113.869 78.358C113.829 84.348 113.739 87.618 113.619 93.898C113.499 100.178 113.379 103.548 113.269 109.758C113.149 115.968 113.159 119.188 113.029 124.968C112.899 130.758 112.849 133.738 112.599 138.688C112.339 143.648 111.919 146.078 111.759 149.728C111.589 153.378 111.309 154.918 111.779 156.928C112.239 158.938 112.949 159.588 114.089 159.768C115.239 159.958 116.419 159.558 117.499 157.838C118.569 156.118 118.849 154.488 119.459 151.158C120.069 147.838 119.839 145.498 120.569 141.218C121.299 136.938 121.849 134.408 123.109 129.758C124.359 125.118 125.109 122.528 126.829 118.018C128.549 113.508 129.609 111.258 131.719 107.208C133.829 103.168 135.029 101.168 137.369 97.788C139.699 94.408 141.029 92.818 143.379 90.328C145.729 87.828 146.989 86.868 149.109 85.298C151.229 83.738 152.229 83.188 153.979 82.498C155.739 81.808 156.509 81.618 157.899 81.828C159.289 82.048 159.739 82.358 160.919 83.578C162.089 84.788 162.559 85.638 163.779 87.908C165.009 90.178 165.939 91.568 167.049 94.928C168.159 98.278 168.659 100.478 169.329 104.688C169.999 108.898 170.169 111.378 170.409 115.968C170.639 120.558 170.559 123.098 170.499 127.638C170.449 132.178 170.309 134.578 170.119 138.658C169.939 142.728 169.659 144.708 169.589 148.008C169.509 151.308 169.419 152.878 169.749 155.158C170.089 157.428 170.639 158.168 171.269 159.368C171.899 160.558 172.119 160.688 172.909 161.148C173.699 161.608 174.169 161.788 175.219 161.668C176.259 161.558 177.339 161.168 178.139 160.578C178.939 159.988 179.209 159.328 179.209 158.718C179.209 158.108 178.759 157.918 178.149 157.518C177.539 157.128 177.089 156.758 176.169 156.728C175.249 156.708 174.399 157.138 173.549 157.398C172.699 157.648 172.479 157.738 171.919 157.998C171.359 158.268 170.759 158.508 170.759 158.718C170.769 158.928 171.319 158.888 171.939 159.048C172.549 159.208 173.199 159.358 173.829 159.508C174.459 159.658 174.739 160.048 175.089 159.798C175.439 159.558 175.519 159.328 175.599 158.288C175.679 157.248 175.539 156.678 175.479 154.618C175.409 152.558 175.369 151.158 175.259 147.978C175.159 144.808 174.999 142.798 174.949 138.738C174.909 134.668 175.009 132.258 175.019 127.668C175.029 123.078 175.129 120.508 174.989 115.778C174.849 111.058 174.779 108.528 174.319 104.038C173.859 99.558 173.579 97.238 172.679 93.358C171.779 89.478 171.379 87.538 169.819 84.648C168.249 81.758 167.079 80.568 164.859 78.918C162.639 77.258 161.289 76.748 158.729 76.368C156.169 75.988 154.709 76.158 152.059 77.008C149.419 77.858 147.999 78.608 145.499 80.598C142.989 82.588 141.919 84.038 139.539 86.978C137.149 89.918 135.899 91.628 133.579 95.288C131.259 98.948 130.079 101.038 127.939 105.278C125.799 109.508 124.729 111.848 122.889 116.478C121.049 121.118 120.289 123.758 118.729 128.448C117.179 133.138 116.399 135.658 115.129 139.948C113.849 144.228 112.979 146.488 112.369 149.868C111.749 153.238 111.679 154.918 112.069 156.818C112.469 158.718 113.459 159.348 114.319 159.368C115.189 159.388 115.939 158.838 116.399 156.928C116.869 155.028 116.649 153.478 116.659 149.848C116.679 146.218 116.509 143.738 116.469 138.778C116.429 133.808 116.439 130.808 116.449 125.008C116.459 119.218 116.439 116.018 116.529 109.818C116.629 103.608 116.749 100.258 116.919 93.978C117.099 87.698 117.229 84.438 117.399 78.418C117.569 72.408 117.689 69.388 117.769 63.908C117.839 58.438 117.799 55.758 117.779 51.048C117.749 46.328 117.809 44.088 117.649 40.338C117.489 36.588 117.509 34.778 116.979 32.288C116.449 29.808 115.819 29.188 114.999 27.928C114.189 26.668 113.839 26.238 112.909 25.988C111.989 25.748 111.079 26.068 110.399 26.698Z" fill="black" stroke="black" stroke-width="4"/>
<path d="M192.729 92.7181C192.179 93.3581 192.359 93.6281 192.249 94.4681C192.149 95.3081 192.089 95.4481 192.199 96.9081C192.319 98.3681 192.309 99.3681 192.829 101.778C193.339 104.178 194.129 105.658 194.789 108.938C195.449 112.208 195.719 114.258 196.139 118.148C196.559 122.038 196.679 124.258 196.879 128.388C197.089 132.508 197.079 134.708 197.169 138.758C197.259 142.808 197.259 144.988 197.339 148.618C197.409 152.248 197.179 154.118 197.539 156.908C197.909 159.688 198.249 160.938 199.169 162.558C200.099 164.178 200.859 164.788 202.169 164.988C203.489 165.188 204.549 164.918 205.729 163.558C206.919 162.188 207.649 160.958 208.089 158.178C208.529 155.408 207.849 153.428 207.919 149.668C207.999 145.918 208.039 143.558 208.449 139.398C208.859 135.228 209.179 132.958 209.979 128.848C210.789 124.738 211.359 122.658 212.489 118.858C213.629 115.058 214.319 113.148 215.649 109.848C216.979 106.548 217.709 104.978 219.119 102.368C220.539 99.7581 221.379 98.6581 222.739 96.8181C224.099 94.9681 224.639 94.178 225.909 93.148C227.179 92.118 227.809 91.8881 229.079 91.6581C230.349 91.4281 231.009 91.5081 232.279 91.9981C233.559 92.4981 234.139 92.8581 235.449 94.1381C236.769 95.4281 237.409 96.3881 238.859 98.4181C240.319 100.438 241.369 101.538 242.729 104.268C244.089 106.988 244.739 108.658 245.669 112.038C246.609 115.428 246.949 117.458 247.389 121.188C247.839 124.918 247.939 126.978 247.889 130.698C247.829 134.408 247.559 136.458 247.119 139.768C246.679 143.088 245.889 144.778 245.689 147.298C245.489 149.808 245.549 150.968 246.109 152.368C246.669 153.758 247.319 154.208 248.489 154.248C249.649 154.288 250.669 153.978 251.919 152.578C253.169 151.178 253.829 149.978 254.739 147.238C255.649 144.498 255.539 142.448 256.489 138.858C257.439 135.278 258.019 133.118 259.499 129.328C260.979 125.538 261.969 123.518 263.869 119.898C265.759 116.278 266.869 114.398 268.969 111.228C271.079 108.048 272.269 106.448 274.399 104.028C276.519 101.608 277.699 100.698 279.599 99.1281C281.509 97.5581 282.399 96.938 283.939 96.178C285.469 95.408 286.129 95.2081 287.289 95.2981C288.459 95.3981 288.839 95.7081 289.759 96.6681C290.679 97.6281 291.039 98.3281 291.869 100.108C292.709 101.888 293.119 102.938 293.929 105.578C294.749 108.208 295.369 109.848 295.949 113.288C296.539 116.728 296.679 118.848 296.859 122.768C297.039 126.698 296.969 128.898 296.849 132.908C296.729 136.928 296.559 139.058 296.259 142.848C295.959 146.638 295.529 148.538 295.349 151.858C295.169 155.178 294.989 156.828 295.349 159.448C295.719 162.058 296.239 163.218 297.179 164.928C298.119 166.628 298.879 167.198 300.029 167.978C301.179 168.748 301.969 168.868 302.919 168.808C303.869 168.748 304.579 168.358 304.789 167.668C305.009 166.988 304.309 165.898 303.989 165.408C303.659 164.918 303.359 165.368 303.169 165.228C302.979 165.088 303.269 165.198 303.049 164.708C302.829 164.228 302.389 163.988 302.069 162.798C301.739 161.608 301.589 160.918 301.429 158.768C301.269 156.618 301.239 155.168 301.259 152.038C301.279 148.918 301.389 146.948 301.529 143.158C301.679 139.368 301.849 137.178 301.989 133.078C302.139 128.978 302.269 126.748 302.259 122.638C302.249 118.538 302.249 116.338 301.939 112.548C301.639 108.758 301.529 106.848 300.729 103.688C299.929 100.528 299.409 99.0881 297.959 96.7481C296.509 94.3981 295.519 93.3281 293.489 91.9481C291.449 90.5781 290.149 90.1181 287.789 89.8881C285.439 89.6581 284.149 89.9381 281.719 90.8181C279.279 91.7081 277.919 92.3681 275.599 94.3081C273.279 96.2481 272.289 97.6781 270.109 100.508C267.929 103.348 266.829 105.068 264.699 108.478C262.569 111.878 261.489 113.808 259.459 117.548C257.439 121.298 256.389 123.378 254.579 127.208C252.769 131.028 252.009 133.198 250.419 136.668C248.819 140.138 247.509 141.778 246.609 144.568C245.699 147.358 245.679 148.808 245.889 150.628C246.099 152.458 246.779 153.218 247.649 153.688C248.529 154.168 249.339 154.078 250.269 152.988C251.199 151.908 251.779 150.798 252.319 148.268C252.859 145.728 252.769 143.818 252.959 140.308C253.149 136.798 253.299 134.648 253.259 130.708C253.219 126.768 253.139 124.618 252.749 120.608C252.349 116.608 252.079 114.458 251.269 110.678C250.449 106.888 249.919 104.998 248.669 101.688C247.409 98.3881 246.739 96.718 244.979 94.148C243.229 91.568 242.069 90.4281 239.879 88.8081C237.689 87.1781 236.419 86.5881 234.029 86.0181C231.639 85.4381 230.249 85.4481 227.929 85.9481C225.609 86.4381 224.459 87.0481 222.429 88.4781C220.399 89.9081 219.479 90.8381 217.769 93.0881C216.059 95.3381 215.289 96.7381 213.879 99.7281C212.479 102.708 211.969 104.478 210.749 108.028C209.529 111.588 208.909 113.538 207.799 117.498C206.679 121.468 206.119 123.618 205.189 127.848C204.259 132.078 203.919 134.418 203.139 138.638C202.349 142.868 201.979 145.228 201.269 148.978C200.549 152.718 199.669 154.628 199.579 157.358C199.489 160.088 200.109 161.348 200.799 162.628C201.489 163.918 202.339 164.028 203.019 163.778C203.689 163.538 203.959 162.928 204.169 161.408C204.369 159.878 204.289 158.778 204.029 156.158C203.769 153.528 203.219 151.798 202.859 148.288C202.509 144.778 202.419 142.608 202.239 138.588C202.069 134.578 202.099 132.358 202.009 128.198C201.919 124.038 201.869 121.798 201.789 117.788C201.709 113.778 201.749 111.648 201.609 108.128C201.479 104.618 201.559 102.878 201.119 100.208C200.679 97.538 200.219 96.3981 199.409 94.7681C198.599 93.1281 197.969 92.7281 197.089 92.0281C196.209 91.3181 195.869 91.1181 194.989 91.2581C194.119 91.3981 193.279 92.0681 192.729 92.7181Z" fill="black" stroke="black" stroke-width="4"/>
<path d="M324.849 140.358C325.469 141.078 325.959 141.308 327.309 141.438C328.659 141.568 329.569 141.538 331.599 141.008C333.629 140.468 334.899 140.048 337.479 138.758C340.069 137.468 341.559 136.318 344.529 134.548C347.499 132.768 349.139 131.778 352.309 129.888C355.479 127.998 357.169 126.998 360.369 125.108C363.579 123.208 365.359 122.288 368.329 120.428C371.299 118.568 372.879 117.708 375.239 115.798C377.609 113.898 378.619 112.928 380.149 110.888C381.669 108.858 382.389 107.798 382.859 105.638C383.329 103.468 383.279 102.068 382.509 100.048C381.729 98.028 380.869 96.958 378.969 95.528C377.069 94.108 375.799 93.458 372.999 92.928C370.209 92.398 368.479 92.428 364.999 92.898C361.519 93.368 359.569 93.928 355.609 95.288C351.639 96.648 349.449 97.588 345.179 99.678C340.899 101.768 338.489 103.048 334.239 105.728C329.979 108.418 327.669 109.908 323.899 113.118C320.129 116.318 318.329 118.198 315.379 121.768C312.429 125.328 310.989 127.208 309.139 130.928C307.299 134.648 306.599 136.668 306.139 140.378C305.669 144.078 305.839 146.058 306.809 149.428C307.789 152.798 308.679 154.478 311.009 157.198C313.329 159.928 314.969 161.188 318.439 163.058C321.909 164.928 323.999 165.588 328.359 166.558C332.719 167.518 335.219 167.708 340.239 167.898C345.249 168.088 348.119 167.948 353.439 167.508C358.759 167.058 361.609 166.578 366.829 165.658C372.049 164.738 374.709 164.138 379.549 162.898C384.389 161.658 386.809 160.978 391.039 159.468C395.279 157.968 397.269 157.038 400.709 155.358C404.159 153.668 406.009 152.748 408.259 151.048C410.509 149.348 410.999 148.318 411.959 146.858C412.929 145.388 413.129 144.588 413.069 143.728C413.019 142.868 412.479 142.548 411.689 142.558C410.899 142.558 410.529 143.068 409.129 143.758C407.729 144.448 406.869 144.578 404.699 146.018C402.519 147.458 401.319 149.048 398.279 150.928C395.239 152.818 393.449 153.808 389.499 155.428C385.549 157.048 383.199 157.758 378.529 159.028C373.859 160.308 371.229 160.918 366.149 161.808C361.079 162.698 358.269 163.128 353.129 163.478C347.989 163.828 345.189 163.868 340.469 163.548C335.739 163.218 333.389 162.878 329.499 161.848C325.619 160.818 323.889 160.038 321.059 158.378C318.219 156.708 317.109 155.648 315.329 153.538C313.549 151.418 312.959 150.338 312.149 147.808C311.339 145.288 311.049 143.898 311.299 140.928C311.549 137.958 311.909 136.238 313.399 132.958C314.899 129.678 316.119 127.838 318.759 124.518C321.409 121.188 323.089 119.358 326.639 116.338C330.189 113.318 332.409 111.888 336.509 109.418C340.619 106.948 343.029 105.738 347.149 103.968C351.279 102.188 353.449 101.418 357.139 100.548C360.819 99.678 362.639 99.678 365.579 99.598C368.519 99.518 369.789 99.878 371.819 100.138C373.859 100.398 374.589 100.508 375.749 100.918C376.919 101.328 377.259 101.538 377.659 102.198C378.069 102.848 378.199 103.238 377.779 104.198C377.369 105.158 376.919 105.688 375.589 106.998C374.259 108.308 373.239 109.028 371.139 110.738C369.039 112.448 367.829 113.628 365.099 115.528C362.379 117.438 360.639 118.408 357.509 120.248C354.379 122.088 352.639 123.078 349.439 124.738C346.239 126.398 344.589 127.278 341.509 128.538C338.429 129.798 336.639 130.038 334.059 131.038C331.479 132.038 330.329 132.578 328.619 133.538C326.899 134.498 326.339 134.988 325.469 135.858C324.589 136.718 324.349 136.968 324.219 137.868C324.099 138.768 324.239 139.648 324.849 140.358Z" fill="black" stroke="black" stroke-width="4"/>
<path d="M458.639 124.418C459.499 123.718 459.819 122.868 460.059 121.308C460.299 119.748 460.299 118.618 459.839 116.618C459.369 114.618 458.859 113.318 457.739 111.308C456.619 109.298 455.829 108.388 454.239 106.588C452.639 104.788 451.849 103.868 449.749 102.318C447.649 100.768 446.399 99.918 443.719 98.858C441.049 97.798 439.499 97.308 436.369 97.018C433.249 96.728 431.519 96.848 428.099 97.408C424.669 97.978 422.809 98.438 419.249 99.838C415.689 101.238 413.799 102.198 410.319 104.408C406.829 106.618 405.009 107.988 401.839 110.898C398.669 113.808 397.059 115.538 394.469 118.948C391.879 122.368 390.619 124.298 388.889 127.978C387.159 131.658 386.409 133.648 385.819 137.338C385.229 141.028 385.209 143.058 385.949 146.438C386.699 149.818 387.499 151.578 389.549 154.228C391.589 156.868 393.089 158.018 396.179 159.658C399.269 161.298 401.249 161.898 404.999 162.428C408.739 162.958 410.889 162.938 414.889 162.318C418.889 161.698 421.029 161.008 424.999 159.328C428.969 157.648 431.009 156.508 434.729 153.898C438.449 151.288 440.269 149.678 443.599 146.288C446.929 142.898 448.579 141.008 451.389 136.948C454.189 132.888 455.439 130.618 457.629 125.978C459.829 121.348 460.749 118.808 462.379 113.758C463.999 108.718 464.679 106.048 465.769 100.758C466.859 95.468 467.199 92.618 467.829 87.308C468.459 81.988 468.629 79.258 468.909 74.208C469.199 69.158 469.259 66.678 469.249 62.078C469.229 57.478 469.089 55.178 468.849 51.208C468.609 47.238 468.539 45.328 468.049 42.218C467.569 39.108 467.269 37.758 466.419 35.678C465.569 33.598 465.079 32.698 463.799 31.828C462.509 30.948 461.369 30.688 459.989 31.288C458.609 31.888 457.559 32.698 456.889 34.818C456.209 36.938 456.389 38.478 456.609 41.888C456.839 45.298 457.519 47.398 458.009 51.858C458.509 56.318 458.699 58.968 459.079 64.168C459.469 69.368 459.569 72.228 459.949 77.858C460.319 83.488 460.489 86.518 460.959 92.338C461.419 98.148 461.669 101.228 462.259 106.938C462.849 112.648 463.189 115.558 463.909 120.888C464.629 126.218 465.019 128.818 465.859 133.598C466.709 138.368 467.179 140.618 468.129 144.748C469.079 148.888 469.579 150.838 470.609 154.248C471.629 157.658 471.989 159.248 473.259 161.798C474.539 164.348 475.399 165.458 476.979 166.998C478.559 168.528 479.949 169.328 481.159 169.468C482.359 169.608 482.999 168.808 482.989 167.688C482.979 166.578 481.969 165.618 481.109 163.898C480.249 162.178 479.819 161.368 478.699 159.098C477.579 156.828 476.759 155.618 475.499 152.528C474.239 149.438 473.559 147.568 472.409 143.638C471.249 139.698 470.699 137.498 469.719 132.848C468.739 128.198 468.309 125.628 467.509 120.378C466.719 115.118 466.359 112.228 465.749 106.568C465.149 100.908 464.889 97.848 464.479 92.068C464.069 86.288 463.919 83.278 463.689 77.658C463.469 72.038 463.419 69.188 463.349 63.978C463.279 58.778 463.239 56.078 463.339 51.628C463.449 47.168 463.819 44.978 463.869 41.708C463.929 38.428 464.049 37.028 463.619 35.248C463.199 33.468 462.359 33.088 461.739 32.808C461.119 32.538 460.679 32.978 460.509 33.888C460.349 34.798 460.559 35.478 460.919 37.358C461.279 39.238 461.689 40.428 462.319 43.288C462.949 46.158 463.529 47.908 464.069 51.688C464.619 55.458 464.849 57.698 465.029 62.168C465.219 66.638 465.199 69.078 464.999 74.018C464.809 78.958 464.649 81.678 464.069 86.868C463.489 92.068 463.149 94.858 462.079 99.998C461.009 105.138 460.329 107.718 458.719 112.568C457.119 117.418 456.199 119.858 454.049 124.258C451.899 128.658 450.689 130.768 447.989 134.558C445.279 138.348 443.689 140.088 440.509 143.188C437.339 146.288 435.589 147.758 432.109 150.068C428.629 152.368 426.719 153.338 423.129 154.718C419.539 156.098 417.609 156.568 414.159 156.958C410.719 157.348 408.929 157.198 405.909 156.658C402.889 156.118 401.369 155.508 399.049 154.268C396.739 153.028 395.829 152.278 394.339 150.448C392.859 148.608 392.269 147.568 391.639 145.098C391.009 142.638 390.819 141.118 391.199 138.118C391.579 135.118 392.089 133.348 393.529 130.108C394.979 126.878 396.089 125.038 398.429 121.938C400.759 118.838 402.279 117.218 405.209 114.618C408.129 112.018 409.879 110.798 413.079 108.928C416.279 107.058 418.049 106.308 421.219 105.278C424.379 104.238 426.029 103.988 428.899 103.768C431.759 103.538 433.099 103.788 435.539 104.148C437.979 104.518 439.069 104.808 441.089 105.588C443.119 106.358 444.079 106.928 445.639 108.018C447.209 109.118 447.889 109.718 448.909 111.048C449.929 112.378 450.139 113.108 450.749 114.678C451.349 116.248 451.359 117.328 451.929 118.898C452.489 120.478 452.809 121.358 453.569 122.538C454.329 123.728 454.719 124.438 455.729 124.818C456.739 125.198 457.769 125.128 458.639 124.418Z" fill="black" stroke="black" stroke-width="4"/>
<path d="M621.329 48.8481C620.759 49.7881 620.999 50.5381 621.039 52.4881C621.089 54.4381 621.149 55.6081 621.549 58.5981C621.959 61.5981 622.629 63.5481 623.089 67.4781C623.549 71.4081 623.699 73.588 623.839 78.248C623.989 82.918 623.919 85.4781 623.819 90.7981C623.719 96.1181 623.619 99.0881 623.349 104.858C623.079 110.618 622.859 113.708 622.459 119.608C622.059 125.508 621.789 128.598 621.349 134.358C620.909 140.108 620.689 143.068 620.269 148.388C619.849 153.708 619.669 156.408 619.269 160.928C618.859 165.458 618.509 167.628 618.229 171.008C617.949 174.398 617.819 175.828 617.869 177.848C617.909 179.868 618.109 180.248 618.439 181.098C618.779 181.948 619.169 181.968 619.539 182.108C619.899 182.258 620.309 181.828 620.259 181.808C620.209 181.788 619.309 181.838 619.299 181.998C619.289 182.148 619.679 182.658 620.199 182.578C620.719 182.498 621.319 182.478 621.899 181.598C622.489 180.718 622.809 180.248 623.109 178.188C623.419 176.118 623.359 174.678 623.419 171.278C623.489 167.868 623.339 165.698 623.439 161.168C623.549 156.638 623.669 153.938 623.949 148.628C624.219 143.318 624.419 140.358 624.809 134.608C625.209 128.848 625.489 125.768 625.929 119.858C626.359 113.948 626.609 110.838 626.979 105.058C627.349 99.268 627.489 96.298 627.779 90.938C628.069 85.588 628.219 83.028 628.419 78.278C628.619 73.528 628.719 71.298 628.769 67.188C628.819 63.078 629.029 60.9681 628.679 57.7281C628.319 54.4881 627.939 52.9681 626.989 50.9781C626.029 48.9981 625.029 48.2181 623.899 47.7981C622.769 47.3681 621.899 47.9081 621.329 48.8481Z" fill="black" stroke="black" stroke-width="4"/>
<path d="M628.339 42.238C628.239 42.948 628.019 42.888 628.309 43.748C628.589 44.608 628.729 45.148 629.769 46.528C630.809 47.918 631.659 48.378 633.529 50.668C635.389 52.968 636.869 54.418 639.089 57.988C641.299 61.558 642.419 63.808 644.589 68.518C646.749 73.228 647.809 75.938 649.909 81.548C652.019 87.158 653.089 90.358 655.109 96.578C657.129 102.788 658.129 106.198 660.019 112.618C661.919 119.028 662.889 122.428 664.569 128.658C666.239 134.888 666.999 138.068 668.409 143.768C669.819 149.468 670.439 152.278 671.589 157.148C672.749 162.008 673.359 164.348 674.189 168.108C675.019 171.868 674.929 173.568 675.729 175.948C676.519 178.328 677.029 179.128 678.169 180.018C679.299 180.918 680.249 181.058 681.409 180.418C682.569 179.788 683.489 178.968 683.959 176.828C684.429 174.698 684.069 173.268 683.769 169.758C683.459 166.248 682.859 163.988 682.429 159.298C681.999 154.608 681.869 151.858 681.609 146.328C681.339 140.798 681.239 137.778 681.099 131.658C680.969 125.538 680.949 122.168 680.929 115.738C680.909 109.318 680.979 105.968 681.019 99.538C681.059 93.098 681.029 89.778 681.119 83.568C681.209 77.358 681.319 74.248 681.459 68.488C681.599 62.718 681.679 59.868 681.809 54.748C681.939 49.618 681.919 47.098 682.119 42.858C682.319 38.618 682.649 36.668 682.809 33.538C682.979 30.398 683.039 29.088 682.929 27.198C682.809 25.318 682.479 24.978 682.229 24.108C681.979 23.248 682.009 23.198 681.679 22.878C681.349 22.548 681.069 22.358 680.579 22.488C680.089 22.628 679.819 22.678 679.239 23.548C678.659 24.418 678.069 24.878 677.689 26.848C677.309 28.818 677.329 30.218 677.349 33.408C677.369 36.608 677.639 38.578 677.799 42.838C677.949 47.098 678.049 49.598 678.109 54.718C678.179 59.838 678.149 62.678 678.109 68.438C678.079 74.198 677.989 77.318 677.939 83.538C677.899 89.748 677.929 93.078 677.889 99.518C677.839 105.958 677.759 109.298 677.709 115.738C677.659 122.168 677.649 125.558 677.629 131.688C677.609 137.828 677.659 140.858 677.619 146.408C677.569 151.958 677.559 154.718 677.389 159.438C677.219 164.158 676.809 166.508 676.759 170.018C676.719 173.528 676.579 175.038 677.149 176.988C677.719 178.948 678.779 179.448 679.589 179.788C680.409 180.138 680.929 179.788 681.239 178.718C681.539 177.648 681.639 176.818 681.119 174.458C680.599 172.098 679.829 170.558 678.649 166.898C677.469 163.248 676.619 160.978 675.209 156.178C673.799 151.388 673.129 148.608 671.599 142.948C670.069 137.278 669.279 134.078 667.559 127.838C665.829 121.598 664.859 118.198 662.979 111.748C661.109 105.298 660.129 101.878 658.179 95.598C656.239 89.318 655.209 86.088 653.269 80.348C651.329 74.608 650.359 71.858 648.479 66.888C646.589 61.928 645.599 59.618 643.839 55.528C642.079 51.438 641.369 49.338 639.689 46.458C637.999 43.568 637.109 42.538 635.419 41.088C633.729 39.638 632.569 39.378 631.239 39.198C629.919 39.018 629.369 39.568 628.789 40.178C628.209 40.778 628.439 41.528 628.339 42.238Z" fill="black" stroke="black" stroke-width="4"/>
<path d="M748.169 110.398C749.229 109.898 749.849 109.058 750.539 107.498C751.219 105.938 751.469 104.698 751.579 102.598C751.689 100.508 751.589 99.188 751.099 97.018C750.609 94.848 750.139 93.698 749.119 91.768C748.099 89.848 747.519 88.938 745.979 87.398C744.439 85.858 743.529 85.058 741.429 84.068C739.329 83.088 738.069 82.688 735.489 82.478C732.899 82.268 731.399 82.268 728.499 83.008C725.609 83.748 724.009 84.388 721.029 86.168C718.049 87.958 716.549 89.168 713.599 91.918C710.659 94.668 709.099 96.338 706.309 99.908C703.509 103.478 702.019 105.558 699.619 109.778C697.219 113.998 696.059 116.448 694.299 121.008C692.539 125.568 691.679 128.028 690.809 132.578C689.929 137.128 689.769 139.518 689.939 143.738C690.109 147.958 690.519 150.068 691.659 153.668C692.809 157.278 693.589 159.028 695.679 161.738C697.779 164.448 699.219 165.698 702.129 167.238C705.039 168.768 706.919 169.238 710.249 169.408C713.579 169.588 715.359 169.248 718.779 168.108C722.209 166.968 724.029 165.998 727.369 163.718C730.709 161.448 732.459 159.888 735.469 156.718C738.469 153.558 739.859 151.578 742.399 147.878C744.939 144.188 746.159 142.128 748.179 138.238C750.209 134.358 751.099 132.258 752.529 128.458C753.949 124.648 754.479 122.638 755.319 119.218C756.169 115.808 756.619 114.118 756.739 111.368C756.859 108.628 756.699 107.248 755.949 105.488C755.189 103.738 754.369 102.898 752.979 102.588C751.589 102.268 750.229 102.588 748.979 103.918C747.739 105.248 747.079 106.568 746.769 109.248C746.449 111.918 747.089 113.708 747.409 117.278C747.729 120.848 747.959 122.928 748.379 127.088C748.799 131.258 749.019 133.758 749.519 138.118C750.019 142.478 750.239 144.748 750.869 148.888C751.499 153.038 751.859 155.148 752.669 158.838C753.469 162.538 753.769 164.378 754.909 167.358C756.049 170.338 756.759 171.668 758.359 173.738C759.969 175.808 760.949 176.668 762.919 177.708C764.899 178.758 766.099 179.018 768.219 178.958C770.339 178.888 771.549 178.478 773.539 177.368C775.519 176.248 776.459 175.278 778.149 173.378C779.839 171.468 781.039 170.418 781.979 167.838C782.919 165.258 783.409 162.258 782.859 160.478C782.299 158.698 780.819 158.188 779.189 158.918C777.569 159.648 776.119 162.138 774.729 164.108C773.329 166.088 773.219 167.208 772.209 168.808C771.209 170.398 770.599 171.098 769.699 172.068C768.799 173.048 768.519 173.468 767.709 173.688C766.899 173.908 766.549 173.828 765.629 173.158C764.719 172.488 764.179 171.928 763.149 170.318C762.129 168.708 761.589 167.658 760.509 165.108C759.439 162.558 758.719 160.968 757.759 157.578C756.799 154.178 756.389 152.108 755.729 148.118C755.069 144.128 754.829 141.888 754.469 137.618C754.099 133.358 753.919 130.888 753.909 126.798C753.889 122.718 754.149 120.648 754.389 117.198C754.629 113.738 755.239 111.948 755.089 109.528C754.949 107.108 754.309 106.168 753.679 105.108C753.039 104.038 752.479 103.988 751.909 104.208C751.329 104.438 751.099 104.878 750.799 106.228C750.499 107.588 750.589 108.598 750.389 110.978C750.189 113.348 750.329 114.918 749.819 118.088C749.299 121.248 748.989 123.208 747.819 126.808C746.649 130.398 745.839 132.398 743.969 136.068C742.099 139.738 740.899 141.728 738.479 145.148C736.049 148.568 734.669 150.388 731.849 153.188C729.029 155.978 727.339 157.278 724.359 159.128C721.389 160.968 719.749 161.608 716.989 162.408C714.239 163.208 713.009 163.268 710.599 163.118C708.189 162.978 707.019 162.698 704.939 161.698C702.849 160.698 701.829 160.068 700.159 158.118C698.489 156.178 697.679 154.908 696.579 151.978C695.479 149.048 694.929 147.188 694.639 143.468C694.349 139.748 694.399 137.558 695.139 133.378C695.879 129.208 696.669 126.848 698.339 122.578C700.009 118.308 701.149 115.958 703.499 112.038C705.849 108.128 707.339 106.188 710.089 103.008C712.829 99.828 714.429 98.348 717.239 96.138C720.049 93.928 721.529 93.168 724.129 91.958C726.719 90.758 728.029 90.608 730.229 90.108C732.429 89.618 733.419 89.468 735.119 89.478C736.829 89.488 737.499 89.668 738.769 90.158C740.029 90.648 740.589 91.058 741.449 91.918C742.309 92.788 742.679 93.248 743.069 94.488C743.469 95.728 743.389 96.518 743.439 98.118C743.489 99.718 743.259 100.758 743.329 102.498C743.389 104.238 743.379 105.338 743.749 106.828C744.129 108.318 744.339 109.238 745.229 109.958C746.109 110.668 747.099 110.888 748.169 110.398Z" fill="black" stroke="black" stroke-width="4"/>
<path d="M840.029 115.188C840.689 114.448 840.829 113.938 840.779 112.788C840.729 111.648 840.609 110.778 839.779 109.448C838.939 108.128 838.109 107.368 836.599 106.158C835.079 104.958 834.209 104.378 832.199 103.428C830.179 102.478 828.999 102.018 826.529 101.418C824.049 100.818 822.679 100.488 819.799 100.418C816.919 100.348 815.269 100.438 812.129 101.058C808.979 101.688 807.249 102.218 804.079 103.558C800.909 104.898 799.239 105.668 796.279 107.748C793.319 109.828 791.779 111.158 789.259 113.968C786.739 116.778 785.509 118.498 783.679 121.798C781.849 125.098 780.999 126.948 780.099 130.488C779.189 134.038 778.869 136.038 779.159 139.538C779.439 143.028 779.919 144.888 781.509 147.968C783.109 151.048 784.389 152.708 787.129 154.928C789.869 157.138 791.669 158.008 795.209 159.038C798.749 160.068 800.869 160.218 804.829 160.058C808.779 159.898 810.989 159.498 814.979 158.248C818.969 157.008 821.079 155.938 824.779 153.818C828.479 151.698 830.289 150.348 833.479 147.658C836.669 144.968 838.269 143.398 840.709 140.378C843.149 137.358 844.259 135.628 845.679 132.558C847.109 129.478 847.679 127.628 847.849 125.008C848.009 122.388 847.569 120.818 846.519 119.448C845.459 118.088 844.079 117.698 842.569 118.188C841.049 118.678 839.769 119.598 838.919 121.888C838.069 124.168 838.189 125.948 838.309 129.598C838.419 133.258 838.909 135.548 839.489 140.148C840.069 144.748 840.379 147.318 841.189 152.578C842.009 157.848 842.519 160.668 843.569 166.468C844.629 172.268 845.289 175.448 846.469 181.578C847.649 187.698 848.289 190.938 849.479 197.088C850.659 203.248 851.359 206.468 852.399 212.348C853.429 218.238 854.069 221.198 854.659 226.528C855.249 231.848 855.379 234.368 855.339 238.978C855.309 243.578 855.149 245.828 854.489 249.538C853.819 253.258 853.329 254.838 852.009 257.548C850.689 260.258 849.869 261.198 847.899 263.088C845.929 264.968 844.869 265.708 842.149 266.968C839.429 268.238 837.849 268.808 834.299 269.408C830.749 270.018 828.649 270.138 824.379 269.978C820.109 269.818 817.649 269.478 812.949 268.618C808.249 267.758 805.629 267.188 800.879 265.668C796.129 264.158 793.649 263.188 789.189 261.048C784.729 258.908 782.429 257.618 778.589 254.968C774.739 252.318 772.929 250.888 769.959 247.788C766.989 244.698 765.659 242.938 763.739 239.488C761.829 236.028 761.149 234.278 760.399 230.518C759.639 226.758 759.519 224.788 759.969 220.668C760.419 216.558 760.969 214.348 762.629 209.958C764.289 205.568 765.479 203.178 768.269 198.698C771.059 194.228 772.809 191.918 776.559 187.598C780.309 183.278 782.559 181.098 787.009 177.098C791.459 173.098 793.999 171.098 798.829 167.608C803.669 164.118 806.239 162.458 811.169 159.648C816.109 156.848 818.749 155.608 823.489 153.568C828.239 151.528 830.749 150.778 834.909 149.458C839.069 148.138 841.009 147.878 844.299 146.968C847.599 146.048 850.059 145.818 851.399 144.888C852.729 143.948 852.589 142.738 850.969 142.288C849.359 141.828 846.779 141.958 843.299 142.608C839.819 143.248 837.839 143.978 833.579 145.498C829.309 147.028 826.809 147.968 821.989 150.208C817.169 152.448 814.489 153.748 809.459 156.688C804.439 159.628 801.819 161.328 796.879 164.908C791.939 168.488 789.359 170.508 784.759 174.578C780.169 178.648 777.849 180.848 773.909 185.268C769.969 189.678 768.079 192.018 765.059 196.658C762.039 201.298 760.679 203.768 758.799 208.468C756.919 213.168 756.209 215.588 755.659 220.178C755.109 224.758 755.179 227.098 756.039 231.388C756.889 235.678 757.749 237.748 759.929 241.618C762.109 245.488 763.669 247.378 766.949 250.718C770.229 254.048 772.209 255.508 776.309 258.298C780.419 261.078 782.809 262.378 787.469 264.628C792.129 266.868 794.699 267.878 799.629 269.528C804.549 271.168 807.209 271.808 812.109 272.838C817.009 273.878 819.519 274.348 824.119 274.688C828.709 275.028 830.999 275.098 835.069 274.558C839.139 274.018 841.119 273.508 844.459 271.988C847.789 270.478 849.309 269.438 851.739 266.968C854.169 264.498 855.179 262.988 856.609 259.638C858.039 256.278 858.359 254.348 858.879 250.208C859.409 246.068 859.389 243.748 859.239 238.928C859.099 234.108 858.869 231.528 858.149 226.098C857.439 220.668 856.749 217.688 855.649 211.758C854.559 205.838 853.849 202.638 852.669 196.478C851.489 190.318 850.869 187.088 849.759 180.958C848.649 174.838 848.019 171.648 847.119 165.868C846.219 160.088 845.779 157.278 845.279 152.068C844.779 146.858 844.609 144.298 844.609 139.828C844.609 135.348 845.069 133.078 845.289 129.708C845.519 126.338 845.899 124.948 845.729 122.978C845.559 121.008 845.049 120.408 844.449 119.858C843.849 119.308 843.319 119.398 842.719 120.238C842.119 121.078 841.969 122.058 841.439 124.048C840.919 126.028 841.089 127.558 840.089 130.178C839.099 132.788 838.449 134.388 836.469 137.118C834.489 139.838 833.019 141.338 830.189 143.808C827.349 146.268 825.629 147.548 822.279 149.438C818.939 151.318 816.979 152.218 813.459 153.238C809.939 154.248 807.989 154.488 804.679 154.528C801.369 154.558 799.649 154.268 796.909 153.408C794.169 152.538 792.979 151.858 790.989 150.208C788.989 148.548 788.109 147.368 786.929 145.138C785.759 142.898 785.329 141.678 785.089 139.028C784.849 136.388 785.019 134.808 785.739 131.918C786.459 129.028 787.139 127.398 788.699 124.588C790.259 121.778 791.359 120.238 793.549 117.868C795.739 115.508 797.079 114.398 799.659 112.748C802.229 111.108 803.669 110.558 806.409 109.628C809.139 108.698 810.699 108.468 813.319 108.118C815.949 107.768 817.239 107.758 819.529 107.878C821.819 107.998 822.879 108.258 824.769 108.708C826.659 109.158 827.609 109.468 828.979 110.138C830.359 110.808 830.739 111.268 831.629 112.078C832.509 112.888 832.699 113.438 833.399 114.188C834.099 114.938 834.329 115.348 835.139 115.818C835.949 116.278 836.489 116.618 837.459 116.498C838.439 116.368 839.359 115.938 840.029 115.188Z" fill="black" stroke="black" stroke-width="4"/>
<path d="M876.849 104.218C876.039 104.298 875.739 104.368 875.049 105.118C874.359 105.868 873.949 106.318 873.399 107.958C872.849 109.588 872.449 110.628 872.299 113.308C872.149 115.988 872.549 117.888 872.659 121.348C872.769 124.808 872.779 126.778 872.839 130.618C872.899 134.468 872.769 136.638 872.959 140.568C873.149 144.508 873.179 146.668 873.799 150.288C874.419 153.908 874.709 155.758 876.059 158.688C877.409 161.628 878.369 162.958 880.549 164.948C882.739 166.938 884.119 167.858 886.999 168.668C889.869 169.468 891.739 169.708 894.939 168.988C898.129 168.278 899.769 167.138 902.979 165.078C906.189 163.008 907.809 161.628 910.969 158.668C914.119 155.718 915.749 153.928 918.749 150.308C921.759 146.688 923.319 144.548 925.979 140.568C928.639 136.588 929.859 134.328 932.039 130.408C934.219 126.478 935.249 124.478 936.879 120.948C938.509 117.418 939.399 115.678 940.199 112.768C941.009 109.858 941.159 108.468 940.899 106.398C940.639 104.318 940.059 103.138 938.909 102.388C937.759 101.638 936.439 101.738 935.149 102.658C933.859 103.578 933.049 104.588 932.459 106.988C931.859 109.378 932.099 111.118 932.169 114.638C932.239 118.168 932.589 120.438 932.809 124.618C933.029 128.788 933.009 131.208 933.269 135.518C933.519 139.818 933.579 142.118 934.069 146.128C934.559 150.128 934.899 152.098 935.719 155.538C936.549 158.978 936.849 160.698 938.189 163.308C939.529 165.928 940.519 167.058 942.429 168.618C944.329 170.178 945.529 170.648 947.739 171.098C949.939 171.558 951.149 171.568 953.459 170.888C955.769 170.218 957.129 169.528 959.269 167.708C961.409 165.898 962.359 164.558 964.169 161.798C965.969 159.038 966.729 157.228 968.299 153.898C969.859 150.568 970.599 148.668 971.989 145.148C973.369 141.638 974.079 139.708 975.219 136.318C976.369 132.938 977.239 130.978 977.699 128.218C978.159 125.458 977.999 123.998 977.509 122.538C977.019 121.078 976.239 120.648 975.239 120.898C974.249 121.148 973.219 121.818 972.519 123.768C971.829 125.708 971.699 127.448 971.789 130.618C971.879 133.788 972.489 135.978 972.979 139.618C973.469 143.248 973.709 145.238 974.219 148.788C974.719 152.338 974.919 154.158 975.499 157.368C976.079 160.568 976.299 162.298 977.139 164.808C977.969 167.318 978.629 168.338 979.669 169.918C980.719 171.488 981.429 172.038 982.379 172.698C983.329 173.348 983.779 173.308 984.419 173.208C985.049 173.108 985.289 172.738 985.539 172.208C985.789 171.678 985.769 171.508 985.639 170.548C985.519 169.578 985.389 168.898 984.929 167.368C984.459 165.828 983.979 165.108 983.329 162.868C982.679 160.628 982.279 159.128 981.659 156.158C981.029 153.188 980.589 151.428 980.199 148.018C979.819 144.618 979.719 142.688 979.709 139.148C979.709 135.618 980.279 133.448 980.179 130.348C980.069 127.258 979.929 125.628 979.179 123.668C978.429 121.708 977.629 120.998 976.439 120.558C975.249 120.128 974.379 120.268 973.229 121.488C972.079 122.698 971.449 124.008 970.689 126.638C969.939 129.268 970.269 131.348 969.449 134.618C968.629 137.888 967.929 139.698 966.579 142.988C965.239 146.268 964.399 148.098 962.739 151.038C961.079 153.988 959.959 155.438 958.279 157.718C956.589 159.988 955.729 160.908 954.309 162.408C952.899 163.918 952.309 164.548 951.189 165.258C950.059 165.958 949.709 166.078 948.699 165.938C947.689 165.788 947.129 165.598 946.129 164.528C945.129 163.448 944.699 162.658 943.699 160.578C942.699 158.488 942.039 157.108 941.129 154.088C940.209 151.058 939.689 149.208 939.139 145.448C938.589 141.688 938.509 139.448 938.389 135.288C938.259 131.118 938.299 128.688 938.529 124.628C938.759 120.558 939.179 118.328 939.539 114.948C939.889 111.568 940.459 109.978 940.309 107.738C940.159 105.498 939.529 104.638 938.779 103.748C938.029 102.858 937.259 102.818 936.579 103.288C935.899 103.758 935.849 104.498 935.379 106.078C934.909 107.668 934.889 108.628 934.249 111.208C933.609 113.788 933.439 115.588 932.189 118.998C930.939 122.408 929.989 124.418 927.999 128.238C926.019 132.058 924.829 134.278 922.269 138.078C919.709 141.888 918.149 143.928 915.199 147.268C912.249 150.608 910.579 152.248 907.529 154.788C904.469 157.328 902.759 158.438 899.929 159.978C897.109 161.528 895.699 161.928 893.409 162.498C891.119 163.068 890.229 163.218 888.459 162.858C886.689 162.488 885.929 162.028 884.569 160.688C883.209 159.338 882.699 158.418 881.669 156.128C880.639 153.838 880.039 152.408 879.409 149.248C878.769 146.088 878.629 144.038 878.489 140.338C878.359 136.638 878.509 134.488 878.739 130.758C878.969 127.028 879.199 125.038 879.639 121.688C880.089 118.338 880.659 116.568 880.939 114.028C881.229 111.488 881.189 110.578 881.069 108.988C880.959 107.408 880.769 106.958 880.369 106.108C879.979 105.268 879.809 105.138 879.109 104.758C878.399 104.378 877.659 104.148 876.849 104.218Z" fill="black" stroke="black" stroke-width="4"/>
<path d="M972.079 62.848C973.069 62.738 973.419 62.878 973.349 62.828C973.269 62.788 972.589 62.918 971.719 62.618C970.859 62.328 969.959 61.458 968.999 61.348C968.049 61.248 967.059 61.698 966.929 62.098C966.809 62.508 967.359 63.238 968.389 63.388C969.419 63.538 971.089 62.958 972.079 62.848Z" fill="black" stroke="black" stroke-width="4"/>
<path d="M1007.9 54.858C1007.35 55.598 1007.64 55.948 1007.57 57.088C1007.5 58.228 1007.36 58.698 1007.54 60.568C1007.72 62.438 1007.98 63.648 1008.47 66.428C1008.95 69.218 1009.57 70.888 1009.98 74.478C1010.38 78.058 1010.41 80.108 1010.48 84.348C1010.56 88.588 1010.46 90.928 1010.35 95.668C1010.23 100.398 1010.16 103.028 1009.92 108.028C1009.68 113.018 1009.43 115.628 1009.13 120.628C1008.82 125.628 1008.62 128.288 1008.39 133.018C1008.17 137.748 1008.15 140.218 1007.99 144.298C1007.83 148.378 1007.51 150.278 1007.59 153.428C1007.68 156.568 1007.72 158.048 1008.41 160.038C1009.1 162.018 1009.77 162.728 1011.04 163.348C1012.31 163.968 1013.3 163.808 1014.74 163.148C1016.19 162.488 1017.02 161.818 1018.27 160.048C1019.52 158.278 1020.07 156.968 1021 154.308C1021.94 151.658 1021.95 149.718 1022.95 146.768C1023.95 143.808 1024.6 142.298 1025.99 139.548C1027.37 136.788 1028.14 135.418 1029.89 132.998C1031.63 130.568 1032.64 129.358 1034.71 127.428C1036.78 125.498 1037.84 124.688 1040.25 123.358C1042.67 122.028 1044.03 121.468 1046.78 120.788C1049.54 120.098 1051.06 119.898 1054.03 119.928C1057.01 119.948 1058.68 120.148 1061.66 120.908C1064.64 121.658 1066.21 122.228 1068.93 123.718C1071.65 125.198 1072.98 126.248 1075.25 128.338C1077.51 130.428 1078.65 131.698 1080.26 134.148C1081.87 136.598 1082.46 137.958 1083.3 140.588C1084.14 143.218 1084.35 144.718 1084.47 147.318C1084.59 149.918 1084.56 151.138 1083.92 153.588C1083.28 156.038 1082.73 157.248 1081.28 159.568C1079.84 161.898 1078.91 163.128 1076.68 165.218C1074.45 167.308 1073.08 168.318 1070.13 170.008C1067.18 171.698 1065.48 172.308 1061.94 173.668C1058.4 175.038 1054.14 175.468 1052.42 176.828C1050.69 178.188 1051.07 180.088 1053.32 180.478C1055.56 180.858 1059.73 179.868 1063.63 178.738C1067.53 177.618 1069.41 176.678 1072.81 174.858C1076.22 173.038 1077.92 172.018 1080.66 169.628C1083.4 167.238 1084.64 165.798 1086.52 162.918C1088.4 160.028 1089.21 158.398 1090.06 155.208C1090.91 152.028 1090.95 150.298 1090.76 146.988C1090.58 143.678 1090.23 141.878 1089.12 138.648C1088.01 135.418 1087.2 133.768 1085.21 130.838C1083.23 127.918 1081.89 126.468 1079.19 124.018C1076.5 121.568 1074.94 120.368 1071.74 118.608C1068.53 116.838 1066.68 116.128 1063.16 115.188C1059.63 114.248 1057.68 113.958 1054.12 113.888C1050.55 113.818 1048.7 114.028 1045.33 114.838C1041.96 115.648 1040.25 116.318 1037.29 117.938C1034.32 119.548 1032.99 120.618 1030.51 122.898C1028.04 125.188 1026.95 126.638 1024.92 129.358C1022.9 132.068 1022.1 133.568 1020.39 136.488C1018.68 139.398 1017.92 140.988 1016.37 143.918C1014.82 146.858 1013.72 148.508 1012.65 151.148C1011.58 153.778 1011.28 155.158 1011.02 157.098C1010.76 159.038 1011 159.898 1011.36 160.848C1011.71 161.798 1012.33 162.168 1012.79 161.848C1013.25 161.528 1013.53 160.978 1013.65 159.238C1013.77 157.508 1013.58 156.158 1013.4 153.168C1013.22 150.178 1012.88 148.308 1012.73 144.298C1012.58 140.298 1012.54 137.848 1012.63 133.158C1012.72 128.478 1012.9 125.848 1013.19 120.868C1013.48 115.888 1013.75 113.258 1014.07 108.258C1014.39 103.258 1014.51 100.618 1014.8 95.858C1015.08 91.098 1015.26 88.778 1015.51 84.458C1015.77 80.138 1015.92 78.068 1016.08 74.278C1016.24 70.488 1016.53 68.568 1016.33 65.498C1016.12 62.438 1015.73 61.038 1015.05 58.938C1014.37 56.838 1013.88 56.098 1012.93 54.998C1011.98 53.888 1011.31 53.438 1010.3 53.408C1009.3 53.388 1008.45 54.128 1007.9 54.858Z" fill="black" stroke="black" stroke-width="4"/>
</svg>
