<svg width="375" height="202" viewBox="0 0 375 202" fill="none" xmlns="http://www.w3.org/2000/svg">
<path d="M553.241 128.192C546.561 128.192 540.317 130.001 534.92 133.117C530.484 104.704 505.976 82.9365 476.318 82.9365C465.871 82.9365 456.071 85.6517 447.541 90.3886C438.665 68.7633 417.428 53.525 392.603 53.525C380.803 53.525 369.829 57.0087 360.585 62.9445C345.547 26.344 309.561 0.5625 267.538 0.5625C217.141 0.5625 175.407 37.635 168.101 85.9942C162.211 84.0393 155.933 82.9365 149.387 82.9365C116.588 82.9365 90 109.524 90 142.323C90 175.123 116.588 201.71 149.387 201.71H553.241C573.542 201.71 590 185.252 590 164.951C590 144.65 573.542 128.192 553.241 128.192Z" fill="#F0F6FF"/>
<path d="M138.702 141.727C132.292 141.727 126.357 143.744 121.471 147.156C121.634 145.364 121.747 143.56 121.747 141.727C121.747 108.937 95.1664 82.356 62.3761 82.356C47.8768 82.356 34.6053 87.5678 24.2947 96.1997C21.6178 87.0123 13.1487 80.293 3.10112 80.293C-0.653154 80.293 -4.18609 81.2368 -7.28473 82.8905C-6.888 80.7482 -6.65414 78.5517 -6.65414 76.2924C-6.65414 56.381 -22.7945 40.2363 -42.7101 40.2363C-56.1779 40.2363 -67.9001 47.6363 -74.0932 58.5776C-89.9998 24.0124 -124.916 0 -165.457 0C-219.149 0 -263.005 42.0904 -265.849 95.0721C-275.947 87.1292 -288.651 82.3518 -302.494 82.3518C-335.285 82.3518 -361.865 108.932 -361.865 141.723C-361.865 143.122 -361.752 144.496 -361.656 145.87C-366.125 143.251 -371.307 141.723 -376.861 141.723C-393.507 141.723 -407 155.216 -407 171.861C-407 188.507 -393.507 202 -376.861 202H138.702C155.348 202 168.84 188.507 168.84 171.861C168.84 155.224 155.348 141.727 138.702 141.727Z" fill="#F0F6FF"/>
</svg>
