<svg width="997" height="202" viewBox="0 0 997 202" fill="none" xmlns="http://www.w3.org/2000/svg">
<path d="M960.241 128.192C953.561 128.192 947.317 130.001 941.92 133.117C937.484 104.704 912.976 82.9365 883.318 82.9365C872.871 82.9365 863.071 85.6517 854.541 90.3886C845.665 68.7633 824.428 53.525 799.603 53.525C787.803 53.525 776.829 57.0087 767.585 62.9445C752.547 26.344 716.561 0.5625 674.538 0.5625C624.141 0.5625 582.407 37.635 575.101 85.9942C569.211 84.0393 562.933 82.9365 556.387 82.9365C523.588 82.9365 497 109.524 497 142.323C497 175.123 523.588 201.71 556.387 201.71H960.241C980.542 201.71 997 185.252 997 164.951C997 144.65 980.542 128.192 960.241 128.192Z" fill="#F0F6FF"/>
<path d="M545.702 141.727C539.292 141.727 533.357 143.744 528.471 147.156C528.634 145.364 528.747 143.56 528.747 141.727C528.747 108.937 502.166 82.356 469.376 82.356C454.877 82.356 441.605 87.5678 431.295 96.1997C428.618 87.0123 420.149 80.293 410.101 80.293C406.347 80.293 402.814 81.2368 399.715 82.8905C400.112 80.7482 400.346 78.5517 400.346 76.2924C400.346 56.381 384.206 40.2363 364.29 40.2363C350.822 40.2363 339.1 47.6363 332.907 58.5776C317 24.0124 282.084 0 241.543 0C187.851 0 143.995 42.0904 141.151 95.0721C131.053 87.1292 118.349 82.3518 104.506 82.3518C71.7154 82.3518 45.1348 108.932 45.1348 141.723C45.1348 143.122 45.2476 144.496 45.3436 145.87C40.8752 143.251 35.6927 141.723 30.1386 141.723C13.4928 141.723 0 155.216 0 171.861C0 188.507 13.4928 202 30.1386 202H545.702C562.348 202 575.84 188.507 575.84 171.861C575.84 155.224 562.348 141.727 545.702 141.727Z" fill="#F0F6FF"/>
</svg>
