<svg width="1em" height="1em" viewBox="0 0 24 24" fill="none" xmlns="http://www.w3.org/2000/svg">
<path fill-rule="evenodd" clip-rule="evenodd" d="M10.1582 3.16563C11.2415 2.32304 12.7585 2.32304 13.8418 3.16564L20.8418 8.61008C21.5726 9.17845 22 10.0524 22 10.9781V19C22 20.6568 20.6569 22 19 22H17C15.3431 22 14 20.6568 14 19V17C14 16.4477 13.5523 16 13 16H11C10.4477 16 10 16.4477 10 17V19C10 20.6568 8.65685 22 7 22H5C3.34315 22 2 20.6568 2 19V10.9781C2 10.0524 2.42742 9.17845 3.15818 8.61008L10.1582 3.16563ZM12.6139 4.74434C12.2528 4.46348 11.7472 4.46348 11.3861 4.74434L4.38606 10.1888C4.14247 10.3782 4 10.6695 4 10.9781V19C4 19.5523 4.44772 20 5 20H7C7.55228 20 8 19.5523 8 19V17C8 15.3431 9.34315 14 11 14H13C14.6569 14 16 15.3431 16 17V19C16 19.5523 16.4477 20 17 20H19C19.5523 20 20 19.5523 20 19V10.9781C20 10.6695 19.8575 10.3782 19.6139 10.1888L12.6139 4.74434Z" fill="currentColor"/>
</svg>
