<svg width="1em" height="1em" viewBox="0 0 24 24" fill="none" xmlns="http://www.w3.org/2000/svg">
<path fill-rule="evenodd" clip-rule="evenodd" d="M19.1158 6.29822L12.1174 13.2967L13.905 19.8513C13.9266 19.9304 13.9605 19.9663 13.9886 19.9872C14.0232 20.0129 14.0749 20.0332 14.1375 20.0354C14.2001 20.0375 14.2531 20.0209 14.2895 19.9976C14.3189 19.9788 14.3552 19.9453 14.3822 19.8679L19.1158 6.29822ZM10.7431 11.8425L17.9755 4.61015L3.8857 8.86985C3.81001 8.89274 3.77478 8.92663 3.75407 8.95547C3.729 8.99038 3.70982 9.04138 3.70814 9.10226C3.70646 9.16314 3.7228 9.21512 3.74591 9.25136C3.76499 9.28129 3.79829 9.31708 3.87261 9.3441L10.7431 11.8425ZM10.1714 13.7627L3.18912 11.2237C1.1558 10.4843 1.23592 7.58154 3.30692 6.95543L19.8 1.96916C21.1694 1.55515 22.43 2.86992 21.9588 4.22068L16.2706 20.5266C15.5427 22.6133 12.557 22.5097 11.9755 20.3775L10.1714 13.7627Z" fill="currentColor"/>
</svg>
